<svg xmlns="http://www.w3.org/2000/svg" viewBox="0 0 520 150" role="img" aria-labelledby="title">
  <title id="title">Terzi Turan</title>
  <defs>
    <linearGradient id="gold" x1="0" y1="0" x2="1" y2="1">
      <stop offset="0" stop-color="#f1d5a7"/>
      <stop offset=".52" stop-color="#c99b5c"/>
      <stop offset="1" stop-color="#8d6335"/>
    </linearGradient>
  </defs>
  <g fill="url(#gold)">
    <path d="M207 8h106l5 25h-5c-4-11-12-16-25-16h-20v70c0 17 5 23 18 26v5h-52v-5c13-3 18-9 18-26V17h-20c-13 0-21 5-25 16h-5l5-25Z"/>
    <path fill="#111210" d="M256 16h8v91l-4 12-4-12V16Z"/>
    <path d="M259 28h2v65h-2z"/>
  </g>
  <text x="260" y="139" text-anchor="middle" fill="#dfc294" font-family="Georgia,serif" font-size="28" letter-spacing="10">TERZİ TURAN</text>
</svg>
