<svg xmlns="http://www.w3.org/2000/svg" viewBox="0 0 128 128" role="img" aria-labelledby="title">
  <title id="title">Terzi Turan monogram</title>
  <defs>
    <linearGradient id="gold" x1="0" y1="0" x2="1" y2="1">
      <stop offset="0" stop-color="#f1d5a7"/>
      <stop offset=".48" stop-color="#c99b5c"/>
      <stop offset="1" stop-color="#8d6335"/>
    </linearGradient>
  </defs>
  <rect x="3" y="3" width="122" height="122" rx="30" fill="#111210" stroke="#5f482e" stroke-width="3"/>
  <rect x="9" y="9" width="110" height="110" rx="24" fill="none" stroke="#c99b5c" stroke-width="1.5" stroke-dasharray="5 4"/>
  <path fill="url(#gold)" d="M25 28h78l4 20h-4c-3-9-9-13-19-13H69v55c0 13 4 18 14 20v4H45v-4c10-2 14-7 14-20V35H44c-10 0-16 4-19 13h-4l4-20Z"/>
  <path fill="#0f100f" d="M61 34h7v71l-3.5 9-3.5-9V34Z"/>
  <path fill="none" stroke="#d6aa6d" stroke-width="2" stroke-linecap="round" stroke-dasharray="5 5" d="M65 42v56"/>
  <circle cx="65" cy="32" r="3" fill="#d6aa6d"/>
</svg>
